<svg width="300" height="300" viewBox="0 0 300 300" fill="none" xmlns="http://www.w3.org/2000/svg">
<ellipse cx="149.734" cy="150.5" rx="110.734" ry="112.5" fill="url(#paint0_linear_2_16)"/>
<path d="M248.825 149.951C248.825 205.925 204.174 251.22 149.194 251.22C94.2133 251.22 49.5623 205.925 49.5623 149.951C49.5623 93.9774 94.2133 48.6829 149.194 48.6829C204.174 48.6829 248.825 93.9774 248.825 149.951Z" stroke="black" stroke-width="6"/>
<path d="M190.5 150.178C190.5 173.218 172.121 191.856 149.5 191.856C126.879 191.856 108.5 173.218 108.5 150.178C108.5 127.137 126.879 108.5 149.5 108.5C172.121 108.5 190.5 127.137 190.5 150.178Z" stroke="black" stroke-width="3"/>
<path d="M80.9534 116.968L149 103.021L217.047 116.968L244.696 150L217.047 183.032L149 196.979L80.9534 183.032L53.3041 150L80.9534 116.968Z" fill="url(#paint1_linear_2_16)" fill-opacity="0.8" stroke="black" stroke-width="2"/>
<path d="M174 150.415C174 163.929 163.225 174.829 150 174.829C136.775 174.829 126 163.929 126 150.415C126 136.901 136.775 126 150 126C163.225 126 174 136.901 174 150.415Z" fill="url(#paint2_linear_2_16)" stroke="black" stroke-width="4"/>
<defs>
<linearGradient id="paint0_linear_2_16" x1="149.734" y1="38" x2="150.291" y2="311.293" gradientUnits="userSpaceOnUse">
<stop stop-color="#B4B800"/>
<stop offset="1" stop-color="#FFFFF4"/>
</linearGradient>
<linearGradient id="paint1_linear_2_16" x1="149" y1="102" x2="149" y2="198" gradientUnits="userSpaceOnUse">
<stop stop-color="white"/>
<stop offset="1" stop-color="white" stop-opacity="0.47"/>
</linearGradient>
<linearGradient id="paint2_linear_2_16" x1="150" y1="124" x2="150" y2="176.829" gradientUnits="userSpaceOnUse">
<stop stop-color="#F9FF00"/>
<stop offset="1" stop-opacity="0.95"/>
</linearGradient>
</defs>
</svg>
